<svg width="84" height="124" viewBox="0 0 84 124" fill="none" xmlns="http://www.w3.org/2000/svg">
<path d="M79.5999 22.5C79.3999 22 79.1999 21.6 78.8999 21.1C72.0999 7.9 56.7999 0.300003 42.2999 0.300003H42.0999C26.0999 0.300003 11.9999 8.6 4.59988 22.4C-2.10012 34.9 -0.200118 53.5 7.49988 65.3C7.89988 66 16.4999 79.2 17.5999 80.7C18.0999 81.4 18.4999 82.3 18.8999 83.2C20.1999 86.5 23.3999 88.7 26.8999 88.7H57.5999C61.0999 88.7 64.2999 86.6 65.5999 83.2C65.9999 82.2 66.3999 81.4 66.8999 80.7C78.5999 63.3 89.4999 43.6 79.5999 22.5ZM33.5999 67.3H21.9999C21.9999 57.7 22.0999 47.9 22.0999 38.7C22.0999 37.2 22.5999 35.9 23.0999 34.5C24.3999 30.8 25.6999 27 26.8999 23.3C26.9999 22.9 27.1999 22.5 27.3999 22.2C27.6999 21.7 28.1999 21.7 28.4999 22.2C28.6999 22.5 28.8999 22.8 28.9999 23.2C30.4999 27.6 31.9999 32.1 33.4999 36.5C33.6999 37 33.6999 37.5 33.6999 38C33.6999 47.4 33.5999 57.5 33.5999 67.3ZM58.8999 67.3H48.3999L47.2999 52.5C47.1999 51.2 48.1999 50.1 49.4999 50.1H57.6999C58.9999 50.1 59.9999 51.2 59.8999 52.5L58.8999 67.3ZM60.3999 45.4C59.8999 46.1 59.0999 46.5 58.1999 46.5H48.7999C47.8999 46.5 47.0999 46.1 46.5999 45.4C46.2999 45 45.9999 44.5 45.7999 44C44.4999 40.8 45.9999 37.7 48.0999 35.3C50.1999 33 52.0999 30.3 53.0999 27.3C53.4999 26.2 53.5999 21.7 55.4999 21.9C55.6999 21.9 55.8999 22 56.0999 22.1C57.3999 22.9 58.0999 25.3 58.4999 26.7C59.1999 28.7 59.7999 30.7 60.3999 32.7C60.7999 34.2 61.2999 35.8 61.5999 37.3C62.2999 40.4 61.9999 43.3 60.3999 45.4ZM29.1999 31.2C29.0999 31.1 28.8999 30.9 28.7999 30.9C28.2999 30.9 27.7999 30.9 27.1999 30.9C26.7999 30.9 26.6999 31 26.4999 31.4C25.8999 33.3 25.1999 35.1 24.5999 36.9C24.4999 37.2 24.3999 37.5 24.2999 37.7C26.6999 37.7 28.9999 37.7 31.2999 37.7C31.2999 37.7 31.2999 37.6 31.2999 37.5C30.6999 35.5 29.8999 33.4 29.1999 31.2Z" fill="black"/>
<path d="M39.1 102.3C39.1 103.9 40.4 105.2 42 105.2H59.7V106C59.7 108.1 59.3 110.1 58.6 112H42C40.4 112 39.1 113.3 39.1 114.9C39.1 116.5 40.4 117.8 42 117.8H55.2C52 121.5 47.2 123.8 42 123.8C32.2 123.8 24.3 115.9 24.3 106.1V94H59.6V99.4H42C40.4 99.5 39.1 100.7 39.1 102.3Z" fill="black"/>
</svg>
