<svg width="61" height="57" viewBox="0 0 61 57" fill="none" xmlns="http://www.w3.org/2000/svg">
<path d="M60.382 0.0769999C60.2608 0.0267795 60.1311 0.000626236 60 0H54C53.7347 0 53.4804 0.105357 53.2929 0.292893C53.1053 0.48043 53 0.734784 53 1C53 1.26522 53.1053 1.51957 53.2929 1.70711C53.4804 1.89464 53.7347 2 54 2H57.586L50.586 9H7.99996C7.20431 9 6.44125 9.31607 5.87864 9.87868C5.31603 10.4413 4.99996 11.2044 4.99996 12V32.586L1.29296 36.293C1.19745 36.3852 1.12127 36.4956 1.06886 36.6176C1.01645 36.7396 0.988862 36.8708 0.987709 37.0036C0.986555 37.1364 1.01186 37.2681 1.06214 37.391C1.11242 37.5138 1.18667 37.6255 1.28056 37.7194C1.37446 37.8133 1.48611 37.8875 1.60901 37.9378C1.7319 37.9881 1.86358 38.0134 1.99636 38.0122C2.12914 38.0111 2.26036 37.9835 2.38236 37.9311C2.50437 37.8787 2.61471 37.8025 2.70696 37.707L4.99996 35.414V42C4.99996 42.7956 5.31603 43.5587 5.87864 44.1213C6.44125 44.6839 7.20431 45 7.99996 45H25V49H20C18.9391 49 17.9217 49.4214 17.1715 50.1716C16.4214 50.9217 16 51.9391 16 53C16 54.0609 16.4214 55.0783 17.1715 55.8284C17.9217 56.5786 18.9391 57 20 57H42C43.0608 57 44.0782 56.5786 44.8284 55.8284C45.5785 55.0783 46 54.0609 46 53C46 51.9391 45.5785 50.9217 44.8284 50.1716C44.0782 49.4214 43.0608 49 42 49H37V45H54C54.7956 45 55.5587 44.6839 56.1213 44.1213C56.6839 43.5587 57 42.7956 57 42V12C57 11.2044 56.6839 10.4413 56.1213 9.87868C55.5587 9.31607 54.7956 9 54 9H53.414L59 3.414V7C59 7.26522 59.1053 7.51957 59.2929 7.70711C59.4804 7.89464 59.7347 8 60 8C60.2652 8 60.5195 7.89464 60.7071 7.70711C60.8946 7.51957 61 7.26522 61 7V1C60.9997 0.802291 60.9409 0.609086 60.8309 0.444802C60.7209 0.280517 60.5647 0.152525 60.382 0.0769999V0.0769999ZM6.99996 12C6.99996 11.7348 7.10532 11.4804 7.29285 11.2929C7.48039 11.1054 7.73474 11 7.99996 11H48.586L41 18.586L35.707 13.293C35.5194 13.1055 35.2651 13.0002 35 13.0002C34.7348 13.0002 34.4805 13.1055 34.293 13.293L20 27.586L15.707 23.293C15.5194 23.1055 15.2651 23.0002 15 23.0002C14.7348 23.0002 14.4805 23.1055 14.293 23.293L6.99996 30.586V12ZM42 51C42.5304 51 43.0391 51.2107 43.4142 51.5858C43.7892 51.9609 44 52.4696 44 53C44 53.5304 43.7892 54.0391 43.4142 54.4142C43.0391 54.7893 42.5304 55 42 55H20C19.4695 55 18.9608 54.7893 18.5857 54.4142C18.2107 54.0391 18 53.5304 18 53C18 52.4696 18.2107 51.9609 18.5857 51.5858C18.9608 51.2107 19.4695 51 20 51H25V53C25 53.2652 25.1053 53.5196 25.2929 53.7071C25.4804 53.8946 25.7347 54 26 54H36C36.2652 54 36.5195 53.8946 36.7071 53.7071C36.8946 53.5196 37 53.2652 37 53V51H42ZM35 52H27V45H35V52ZM11 43V40.414L15 36.414L19.293 40.707C19.4805 40.8945 19.7348 40.9998 20 40.9998C20.2651 40.9998 20.5194 40.8945 20.707 40.707L35 26.414L40.293 31.707C40.4805 31.8945 40.7348 31.9998 41 31.9998C41.2651 31.9998 41.5194 31.8945 41.707 31.707L51 22.414V43H11ZM54 11C54.2652 11 54.5195 11.1054 54.7071 11.2929C54.8946 11.4804 55 11.7348 55 12V42C55 42.2652 54.8946 42.5196 54.7071 42.7071C54.5195 42.8946 54.2652 43 54 43H53V20C52.9999 19.8022 52.9412 19.609 52.8314 19.4445C52.7215 19.2801 52.5653 19.152 52.3826 19.0763C52.1999 19.0007 51.9989 18.9808 51.8049 19.0194C51.611 19.058 51.4328 19.1532 51.293 19.293L41 29.586L35.707 24.293C35.5194 24.1055 35.2651 24.0002 35 24.0002C34.7348 24.0002 34.4805 24.1055 34.293 24.293L20 38.586L15.707 34.293C15.5194 34.1055 15.2651 34.0002 15 34.0002C14.7348 34.0002 14.4805 34.1055 14.293 34.293L9.29296 39.293C9.10541 39.4805 9.00002 39.7348 8.99996 40V43H7.99996C7.73474 43 7.48039 42.8946 7.29285 42.7071C7.10532 42.5196 6.99996 42.2652 6.99996 42V33.414L15 25.414L19.293 29.707C19.4805 29.8945 19.7348 29.9998 20 29.9998C20.2651 29.9998 20.5194 29.8945 20.707 29.707L35 15.414L40.293 20.707C40.4805 20.8945 40.7348 20.9998 41 20.9998C41.2651 20.9998 41.5194 20.8945 41.707 20.707L51.414 11H54Z" />
</svg>
