<svg width="44" height="37" viewBox="0 0 44 37" fill="none" xmlns="http://www.w3.org/2000/svg">
<path d="M39.7 31.3H3.99998C1.89998 31.3 0.0999756 29.6 0.0999756 27.4V4.69999C0.0999756 2.59999 1.79998 0.799988 3.99998 0.799988H39.7C41.8 0.799988 43.6 2.49999 43.6 4.69999V27.4C43.6 29.5 41.8 31.3 39.7 31.3ZM3.99998 2.19999C2.59998 2.19999 1.49998 3.29999 1.49998 4.69999V27.4C1.49998 28.8 2.59998 29.9 3.99998 29.9H39.7C41.1 29.9 42.2 28.8 42.2 27.4V4.69999C42.2 3.29999 41.1 2.19999 39.7 2.19999H3.99998Z"  />
<path d="M39.6 31.3H4.09998C1.89998 31.3 0.0999756 29.5 0.0999756 27.3V24.9C0.0999756 24.5 0.399976 24.2 0.799976 24.2H42.9C43.3 24.2 43.6 24.5 43.6 24.9V27.3C43.6 29.5 41.8 31.3 39.6 31.3ZM1.49998 25.6V27.3C1.49998 28.7 2.69998 29.9 4.09998 29.9H39.6C41 29.9 42.2 28.7 42.2 27.3V25.6H1.49998Z"  />
<path d="M21.0999 30.8V35.6H9.99993C9.59993 35.6 9.29993 35.9 9.29993 36.3C9.29993 36.7 9.59993 37 9.99993 37H33.6999C34.0999 37 34.3999 36.7 34.3999 36.3C34.3999 35.9 34.0999 35.6 33.6999 35.6H22.5999V30.8H21.0999Z"  />
<path d="M19.5 27.8C19.5 27.4 19.9 27 20.3 27H23.3C23.8 27 24.1 27.3 24.1 27.8C24.1 28.2 23.7 28.6 23.3 28.6H20.3C19.9 28.6 19.5 28.2 19.5 27.8Z"  />
<path d="M16.9999 4.19998C17.6999 4.19998 18.4999 4.19998 19.0999 4.59998C19.8999 4.99998 20.3999 5.59998 20.5999 6.29998C20.6999 6.89998 20.5999 7.89998 19.3999 9.09998C18.7999 9.69998 18.7999 10.6 19.3999 11.2C19.9999 11.8 20.8999 11.8 21.4999 11.2C23.2999 9.39998 24.5999 9.99998 25.0999 10.3C26.1999 11.1 26.1999 12.5 26.1999 13.5C26.1999 18.6 22.0999 22.7 16.9999 22.7C11.8999 22.7 7.79993 18.6 7.79993 13.5C7.79993 8.29998 11.8999 4.19998 16.9999 4.19998ZM16.9999 5.49998C12.5999 5.49998 9.09993 8.99998 9.09993 13.4C9.09993 17.8 12.5999 21.3 16.9999 21.3C21.3999 21.3 24.8999 17.8 24.8999 13.4C24.8999 12.5 24.8999 11.7 24.2999 11.3C23.6999 10.9 22.8999 11.6 22.3999 12C21.2999 13.1 19.4999 13.1 18.3999 12C17.2999 10.9 17.2999 9.09998 18.3999 7.99998C18.9999 7.39998 19.2999 6.79998 19.1999 6.39998C19.0999 5.99998 18.7999 5.79998 18.4999 5.69998C18.1999 5.59998 17.6999 5.49998 16.9999 5.49998ZM14.8999 16.2C15.5999 15.5 16.8999 15.5 17.5999 16.2C18.2999 16.9 18.2999 18.2 17.5999 18.9C16.8999 19.6 15.5999 19.6 14.8999 18.9C14.4999 18.5 14.2999 18.1 14.2999 17.5C14.3999 17 14.5999 16.5 14.8999 16.2ZM16.6999 17.1C16.4999 16.9 16.0999 16.9 15.8999 17.1C15.7999 17.2 15.6999 17.4 15.6999 17.5C15.6999 17.7 15.7999 17.8 15.8999 17.9C16.0999 18.1 16.4999 18.1 16.6999 17.9C16.7999 17.8 16.8999 17.6 16.8999 17.5C16.8999 17.4 16.7999 17.2 16.6999 17.1ZM14.2999 12.8C14.9999 13.5 14.9999 14.8 14.2999 15.5C13.8999 15.9 13.4999 16.1 12.8999 16.1C12.3999 16.1 11.8999 15.9 11.4999 15.5C11.0999 15.1 10.8999 14.6 10.8999 14.1C10.8999 13.6 11.0999 13.1 11.4999 12.7C12.2999 12.1 13.4999 12.1 14.2999 12.8ZM13.2999 13.8C13.0999 13.6 12.6999 13.6 12.4999 13.8C12.2999 14 12.2999 14.4 12.4999 14.6C12.5999 14.7 12.7999 14.8 12.8999 14.8C13.0999 14.8 13.1999 14.7 13.2999 14.6C13.4999 14.3 13.4999 14 13.2999 13.8ZM19.5999 17.5C19.1999 17.1 18.9999 16.7 18.9999 16.1C18.9999 15.6 19.1999 15.1 19.5999 14.7C19.9999 14.3 20.3999 14.1 20.9999 14.1C21.4999 14.1 21.9999 14.3 22.3999 14.7C23.0999 15.4 23.0999 16.7 22.3999 17.4C21.9999 17.8 21.5999 18 20.9999 18C20.3999 18.1 19.9999 17.9 19.5999 17.5ZM20.8999 16.7C21.0999 16.7 21.1999 16.6 21.2999 16.5C21.3999 16.4 21.4999 16.2 21.4999 16.1C21.4999 16 21.3999 15.8 21.2999 15.7C21.1999 15.6 20.9999 15.5 20.8999 15.5C20.6999 15.5 20.5999 15.6 20.4999 15.7C20.3999 15.8 20.2999 16 20.2999 16.1C20.2999 16.3 20.3999 16.4 20.4999 16.5C20.5999 16.7 20.7999 16.7 20.8999 16.7ZM15.7999 8.29998C16.1999 8.69998 16.3999 9.09998 16.3999 9.69998C16.3999 10.2 16.1999 10.7 15.7999 11.1C15.0999 11.8 13.7999 11.8 13.0999 11.1C12.6999 10.7 12.4999 10.3 12.4999 9.69998C12.4999 9.19998 12.6999 8.69998 13.0999 8.29998C13.7999 7.59998 14.9999 7.59998 15.7999 8.29998ZM14.3999 9.09998C14.1999 9.09998 14.0999 9.19998 13.9999 9.29998C13.8999 9.39998 13.7999 9.59998 13.7999 9.69998C13.7999 9.89998 13.8999 9.99998 13.9999 10.1C14.1999 10.3 14.5999 10.3 14.7999 10.1C14.8999 9.99998 14.9999 9.79998 14.9999 9.69998C14.9999 9.49998 14.8999 9.39998 14.7999 9.29998C14.6999 9.09998 14.5999 9.09998 14.3999 9.09998Z"  />
<path d="M33.4999 4.19999C33.3999 3.89999 33.0999 3.79999 32.7999 3.79999C28.0999 4.09999 27.7999 6.79999 27.7999 9.19999C27.7999 10.3 28.5999 11.2 29.5999 11.5V19.5C29.5999 19.9 29.8999 20.2 30.2999 20.2C30.6999 20.2 30.9999 19.9 30.9999 19.5V11.5C31.9999 11.2 32.5999 10.3 32.5999 9.19999C32.5999 8.89999 32.4999 8.59999 32.4999 8.29999C32.4999 6.29999 32.4999 5.69999 33.2999 4.99999C33.5999 4.79999 33.5999 4.39999 33.4999 4.19999ZM31.1999 8.29999C31.1999 8.59999 31.1999 8.79999 31.1999 9.19999C31.1999 9.79999 30.6999 10.3 30.0999 10.3C29.4999 10.3 29.0999 9.79999 28.9999 9.19999C28.9999 7.59999 29.0999 5.99999 31.3999 5.39999C31.1999 6.09999 31.1999 6.99999 31.1999 8.29999Z"  />
<path d="M28.7 19.7C28.7 20.1 29 20.4 29.4 20.4H30.9C31.3 20.4 31.5999 20.1 31.5999 19.7C31.5999 19.3 31.3 19 30.9 19H29.4C29 19 28.7 19.3 28.7 19.7Z"  />
</svg>
