<?xml version="1.0" encoding="utf-8"?>
<!-- Generator: Adobe Illustrator 16.0.0, SVG Export Plug-In . SVG Version: 6.00 Build 0)  -->
<!DOCTYPE svg PUBLIC "-//W3C//DTD SVG 1.1//EN" "http://www.w3.org/Graphics/SVG/1.1/DTD/svg11.dtd">
<svg version="1.1" id="Layer_1" xmlns="http://www.w3.org/2000/svg" xmlns:xlink="http://www.w3.org/1999/xlink" x="0px" y="0px"
	 width="505.46px" height="498.746px" viewBox="0 0 505.46 498.746" enable-background="new 0 0 505.46 498.746"
	 xml:space="preserve">
<path fill="#21B14B" d="M460.759,118.411c0,0-1.846-2.814-1.992-2.96C410.746,43.595,337.654,2.551,252.578,0
	C167.792,2.551,94.672,43.595,46.681,115.451c-0.32,0.146-1.995,2.96-1.995,2.96C7.043,176.373-8.316,249.079,4.375,308.153v-0.146
	c0.412,1.438,0.527,2.874,0.822,4.281c10.669,41.043,53.268,74.112,89.183,91.438c41.748-51.244,95.868-75.696,158.783-75.988
	c62.885,0.292,114.867,20.316,158.049,75.988c35.914-17.325,78.221-50.396,88.922-91.438c0.381-1.407,0.674-2.845,0.822-4.281
	l0.115,0.146C513.88,249.079,498.111,176.373,460.759,118.411"/>
<path fill="#FFFFFF" d="M28.768,304.46l-0.146-0.265c-2.553-12.519-3.986-25.562-3.986-39.051c0-24.451,4.397-50.19,12.662-75.109
	c6.247-17.533,16.477-39.228,27.269-57.991c5.276,17.034,8.091,35.503,8.091,54.678C72.657,234.04,55.624,276.346,28.768,304.46"/>
<path fill="#FFFFFF" d="M255.275,272.064c-67.461,0-122.106-53.24-122.106-119c0-65.583,54.646-118.854,122.106-118.854
	c67.605,0,122.107,53.271,122.107,118.854C377.382,218.824,322.88,272.064,255.275,272.064"/>
<path fill="#FFFFFF" d="M479.791,303.784c0,0,0,0.147,0,0.266c-26.682-28.114-43.715-70.156-43.715-117.328
	c0-19.027,2.814-37.38,7.943-54.091c11.521,19.613,22.135,42.744,28.264,60.365c7.508,23.805,11.492,48.139,11.492,71.564
	C483.775,278.045,482.486,291.239,479.791,303.784"/>
<path fill="#FCD0AF" d="M252.578,327.355c-57.08,0.118-126.797,19.291-158.197,76.37c3.432,28.527,15.743,65.32,56.232,79.688
	c32.395,11.345,65.171,15.068,87.217,15.186h7.8c0.148,0.146,6.948,0.146,6.948,0.146s7.125,0,7.241-0.146h7.8
	c22.045-0.116,54.823-3.841,87.219-15.186c40.488-14.367,52.83-51.16,56.375-79.688
	C379.522,346.646,309.805,327.475,252.578,327.355"/>
<path fill="#6D6E70" d="M201.211,431.58c-11.96-0.293-13.397-19.994-13.397-43.479c0-23.396,2.552-40.896,13.662-41.721
	c12.783-1.435,12.783,19.175,12.783,42.601C214.259,412.524,212.413,431.58,201.211,431.58"/>
<path fill="#6D6E70" d="M308.25,431.58c-11.196,0-12.896-19.056-12.896-42.599c0-23.426,0-44.034,12.607-42.601
	c10.932,0.823,13.482,18.325,13.482,41.721C321.443,411.586,320.21,431.287,308.25,431.58"/>
</svg>
