<svg width="24" height="24" viewBox="0 0 24 24" fill="none" xmlns="http://www.w3.org/2000/svg">
<path fill-rule="evenodd" clip-rule="evenodd" d="M6.127 4.259C12.868 5.85 17.416 9.011 19.858 17.767L0 24L6.127 4.259ZM4.998 17.001C6.101 17.001 6.997 17.899 6.997 19.001C6.997 20.105 6.101 21.001 4.998 21.001C3.894 21.001 2.999 20.105 2.999 19.001C2.999 17.899 3.894 17.001 4.998 17.001ZM9.761 14.112C10.804 14.472 11.357 15.612 10.997 16.655C10.636 17.698 9.496 18.252 8.454 17.891C8.454 17.891 7.839 17.674 8.036 17.108C8.231 16.542 8.846 16.757 8.846 16.757C9.263 16.902 9.719 16.681 9.864 16.264C10.007 15.845 9.786 15.39 9.369 15.244C9.369 15.244 8.74 15.077 8.952 14.467C9.144 13.913 9.761 14.112 9.761 14.112ZM7.139 2.823C5.754 2.381 6.209 0 7.886 0L7.997 0.004C16.303 1.346 22.002 7.676 23.992 16.002L24 16.155C24 17.699 21.622 18.186 21.11 16.878C18.956 9.075 14.283 4.52 7.139 2.823ZM14.496 14.001C15.323 14.001 15.995 14.674 15.995 15.501C15.995 16.33 15.323 17.001 14.496 17.001C13.667 17.001 12.995 16.33 12.995 15.501C12.995 14.674 13.667 14.001 14.496 14.001ZM6.564 13.949C5.489 13.695 4.823 12.617 5.077 11.543C5.33 10.469 6.408 9.802 7.481 10.056C7.481 10.056 8.115 10.209 7.978 10.793C7.84 11.377 7.207 11.224 7.207 11.224C6.777 11.122 6.346 11.389 6.245 11.819C6.143 12.248 6.41 12.68 6.839 12.781C6.839 12.781 7.481 12.884 7.333 13.513C7.198 14.084 6.564 13.949 6.564 13.949ZM11.996 8.003C13.099 8.003 13.995 8.899 13.995 10.002C13.995 11.106 13.099 12.002 11.996 12.002C10.892 12.002 9.996 11.106 9.996 10.002C9.996 8.899 10.892 8.003 11.996 8.003Z" fill="black"/>
</svg>
